# xmcd
#
# Track frame offsets: 
#        183
#        14108
#        28728
#        41883
#        56488
#        71083
#        86053
#        99900
#        112095
#        126090
#        139698
#        152400
#        166920
#        181163
#
# Disc length: 2609 seconds
#
# Revision: 0
# Processed by: cddbd v1.5.2PL0 Copyright (c) Steve Scherf et al.
# Submitted via: ExactAudioCopy v0.90b4
#
DISCID=bd0a2f0e
DTITLE=Blind Teddy Darby - Bootleggin' Ain't Good No More 
DYEAR=1992
DGENRE=Blues
TTITLE0=Bootleggin' Ain't Good No More 
TTITLE1=Heart Troubles Blues
TTITLE2=The Girl I Left Behind
TTITLE3=Spike Driver
TTITLE4=I'm Gonna Wreck Your Vee Eight
TTITLE5=Meat and Bread Blues
TTITLE6=Pitty-Pat Blues
TTITLE7=My Laona Blues
TTITLE8=Lawdy Lawdy Worried Blues
TTITLE9=Deceiving Blues
TTITLE10=Built Right on the Ground
TTITLE11=Low Mellow
TTITLE12=She Ain't no Girl of Mine
TTITLE13=Bought a Bottle of Gin
EXTD=
EXTT0=
EXTT1=
EXTT2=
EXTT3=
EXTT4=
EXTT5=
EXTT6=
EXTT7=
EXTT8=
EXTT9=
EXTT10=
EXTT11=
EXTT12=
EXTT13=
PLAYORDER=
